<?xml version="1.0" encoding="utf-8"?>
<!-- Generator: Adobe Illustrator 17.1.0, SVG Export Plug-In . SVG Version: 6.00 Build 0)  -->
<!DOCTYPE svg PUBLIC "-//W3C//DTD SVG 1.1//EN" "http://www.w3.org/Graphics/SVG/1.1/DTD/svg11.dtd">
<svg version="1.1" id="Layer_1" xmlns="http://www.w3.org/2000/svg" xmlns:xlink="http://www.w3.org/1999/xlink" x="0px" y="0px"
	 viewBox="192.2 31.7 733.1 900" enable-background="new 192.2 31.7 733.1 900" xml:space="preserve">
<g id="g3781" transform="translate(0,-9.0039062e-4)">
</g>
<g>
	<path id="path3583_2_" fill="#1F221D" d="M878.7,209c-4.1-2.9-18.4-12.1-22.4-15.2c-13.4-10.4-29.1-25.6-37.8-42.5
		c-2-4.1-6.8-11.7-8.8-16.8c-1.8-3.1-3.2-8.2-8.2-12.3c-3.1-2.3-7-4.7-13.1-5.6c-6.8-1-16.2,0.4-22.6,5c-3.4,2.9-5.7,6.1-7.2,10.2
		c-1.4,5.2,0,10.9,2.3,14c1.8,2.7,7,5.9,11.8,6.8c-2.9,3.4-12.7,12.3-15.2,14.5c-0.9,0.9-1.4,1.4-2.5,2.3c2-8-1.4-14.1-7-18.3
		c-3.7-2.7-8.2-3.7-12.9-4.5c-3.9-0.6-6.6-0.9-10.7-0.6l-5.4,1.1l11.5-25.8c-9.7-17.9-22.8-32.2-37.2-44.6
		c-18.8-16-42.5-27.7-67-35.3c-22.2-7-45.1-9.3-67.1-9.5h-0.4c-22.2,0.2-45.1,2.5-67.3,9.5c-24.4,7.6-48,19.3-66.9,35.3
		c-14.3,12.3-27.2,26.7-37.2,44.6l11.5,25.8l-5.4-1.1c-4.1-0.2-6.8,0-10.7,0.6c-4.5,0.9-9.3,1.8-12.9,4.5c-5.5,4.1-9,10.2-6.8,18.3
		c-1.2-0.9-1.8-1.4-2.7-2.3c-2.5-2.3-12.3-11.1-15.2-14.5c5-0.9,10-4.1,12-6.8c2.5-3.1,3.7-8.8,2.3-14c-1.4-4.1-3.7-7.4-7.2-10.2
		c-6.1-4.5-15.6-5.9-22.6-5c-6.1,0.9-10,3.2-12.9,5.6c-5.2,4.1-6.6,9.3-8.2,12.3c-2.3,5.2-7,12.7-9,16.8
		c-8.6,16.8-24.2,32-37.8,42.5c-3.7,3.1-18.3,12.3-22.4,15.2c-24-4.7-49.2,10.7-47,36.5c0.2,2.9,0.6,5.2,1.6,8.4
		c2,6.1,5,9.8,8.2,13.8c13.8,13.4,42.1,9.5,46.4-7.8c1.4-4.3,1.1-7.6,0.4-10.9c0.8,2.3,1.4,2.7,2.7,5.7c2.5,5.4,7.9,22.8,8.2,30.4
		c-4.5-6.1-16.6-5.2-22.2-1.8c-10.2,6.6-10,13.4-9.5,22.8c12.3-5.4,19.9,8,22.9,17.9c8,23,8.4,52.1,3.4,73.9c0-0.2-0.2,2-1,4.3
		c-4.7-21.1-30.4-24.2-43.1-14.8c-4.7,2.9-8,7.4-10.7,12.3c-2.3,4.7-3.7,10.4-3.7,16.5c0.8,5.9,1.4,8.8,3.9,13.4
		c3.1,5,6.6,8.8,12.7,12.9c3.1,1.8,5,3.1,8.4,5.4c7.2,11.5,24.4,22.8,28.5,40.6c0,0.4,0.6,6.8,0.4,7c-9.3,7-10.2,16-7,26.3
		c3.4,9.5,13.1,14.1,22.6,16c5.2,13.4,4.7,27.9,2,49.1c-1.4,12.1-4.7,25.4-6.6,37.8c-2,14.3-3.7,27.9-3.1,43.5
		c0.4,14.2,3.2,29.6,7.2,44.4c6.8,24,20.8,46.2,39.2,62.4c9.7,9,19.7,16.6,36.7,24c17,5.7,31.5,7.6,47,10.9
		c14.2,2.9,32.4,5.5,46,9.5c10.7,2.9,27,8.8,39.9,17.4c8.8,5.9,17.2,13.8,22.2,24.2c2.5,5.7,5.9,16.3,8.2,24.7
		c0.6,2.7,1.1,3.2,1.2,5.4l16.5-2l3.7,14.1l11.7-2.3c4.7,14.2,10.7,25.2,21.3,30.8c10.4-5.6,16.6-16.6,21.1-30.8l11.7,2.3l3.7-14.1
		l16.4,2c0.4-2,0.6-2.7,1.2-5.4c2.3-8.4,5.7-18.8,8.4-24.7c4.7-10.4,13.1-18.3,22-24.2c12.7-8.6,29.2-14.5,39.9-17.4
		c13.8-3.9,31.8-6.6,46.2-9.5c15.4-3.2,29.7-5.2,46.7-10.9c17-7.4,27.1-15,36.7-24c18.4-16.3,32.4-38.3,39.2-62.4
		c3.9-14.8,7-30.2,7.4-44.4c0.4-15.6-1.1-29.2-3.3-43.5c-1.8-12.3-5.1-25.6-6.6-37.8c-2.5-21.1-3.1-35.8,2-49.1
		c9.5-1.8,19.1-6.6,22.8-16c3.1-10.2,2-19.3-7.2-26.3c-0.2-0.2,0.4-6.6,0.6-7c4.1-17.9,21.1-29.2,28.3-40.6c3.4-2.3,5.5-3.4,8.6-5.4
		c5.9-4.1,9.4-8,12.5-12.9c2.5-4.5,3.1-7.4,3.9-13.4c0.2-5.9-1.2-11.7-3.7-16.5c-2.5-5-5.9-9.5-10.7-12.3
		c-12.7-9.5-38.3-6.4-43.1,14.8c-0.9-2.3-1.1-4.5-1.1-4.3c-5-21.8-4.5-50.9,3.4-73.9c3.1-9.9,10.9-23.2,23.3-17.9
		c0.6-9.5,0.6-16.3-9.5-22.8c-5.6-3.3-17.9-4.3-22.2,1.8c0.4-7.6,5.7-25,8.2-30.4c1.1-3.1,1.6-3.4,2.7-5.7
		c-0.9,3.3-1.3,6.6,0.2,10.9c4.3,17.2,32.6,21.1,46.4,7.8c3.4-3.9,6.1-7.6,8.2-13.8c1-3.3,1.4-5.5,1.6-8.4
		C927.9,219.6,902.9,204.2,878.7,209L878.7,209z"/>
	<rect x="301.4" y="216.8" fill="#00924F" width="515.5" height="273.7"/>
	<path id="path3587_3_" fill="#DB156D" d="M816.9,554.9c0,1.4,0,2.9,0,4.3c0,144.3-115.8,262.2-257.6,262.2
		c-142.1,0-257.9-117.8-257.9-262.2c0-1.4,0-2.9,0-4.3v-57.1h515.5V554.9z"/>
	<path fill="#1F221D" d="M767.9,238.7l-0.6-0.6c-1.8-1.4-3.3-1.6-5.6-1.2l-1.2,0.4l-21.3,12l-8.4-5.7c-2-0.9-3.9-0.4-5.9,0.4
		l-24.2,13.6l-29.2,15.2c-36.2,19.4-72.2,38.9-108.1,58.5c-36.4-19.5-72.7-38.9-109.3-58.5l-29.2-15.2l-26.1-15.2
		c-6.4-1.6-8.4,2.3-13.4,5.5l-20.6-10.4l-1.1-0.4c-4.5-0.9-8,1.8-7.8,6.4l0.2,1.1l0.4,0.9l0.6,1.1l178.4,99.8
		c-14.5,7.9-28.9,15.7-43.5,23.5l-5.7,0.9l-1-0.6c-0.6-0.4-1.4-1.1-2.3-1.4c-1.2-0.6-2.7-1-3.9-1.4l0,0c-0.4,0-0.6,0-1.1,0l-1.6-0.2
		c-1.4,0.2-2.7,0.6-4.1,1.2l-1.2,0.9c-2.5,2-3.6,3.9-4.7,6.8l-0.4,2c0,0-0.2,0.2-0.2,0.4c-0.6,0.9-1.3,1-2,1.4
		c-1.6,0.6-3.1,0.6-5,0.4l-0.9-0.2l-0.9-0.2l-0.9-0.4l-0.8-0.2l-0.6-0.4c-1.4,0.2-1.8,0.4-2,1.8l0.6,0.6c0.4,0.4,0.9,0.9,1.2,1
		c0.4,0.2,0.6,0.2,1,0.4l6.8,3.2l-18.3,4.7l-16,2.7c-2.9,0.6-5.7,1.4-8.6,2c-6.1,1.4-12.5,3.7-18.8,4.7l-29.5,8.6
		c-3.1,1.2-5.2,2.3-6.4,5.4l-0.4,1.2c-0.2,2.5-0.4,5.4-0.4,8.2v3.1c0.2,13.6,3.3,28.5,17.4,34.7l1.6,0.4c3.1,0.4,5.7,0.2,8.8-0.4
		l2-0.6l10-5.7c0.6-0.4,1.4-0.9,2.3-1.1c1.8-1,3.9-2,5.7-3.2c0.8-0.4,1.6-1.1,2.5-1.4c2.5-1.6,4.7-3.6,7.2-5.4
		c4.7-3.7,8.8-7.6,13.4-11.7c1.1-1.1,2-1.8,3.1-2.7c3.9-3.2,8-6.4,12.2-9c3.7-2.5,12.1-6.4,12.1-6.4l3.6,1l0.8,0.1l2.2-4.1
		c0.3-0.5,0.8-1,1.4-1.2c3.7-1.4,5.5,2.5,1.7,5.2l-1.6,0.9c-0.4,0-0.8,0-1.2-0.2c-0.6,0-1.2-0.2-2-0.4l-0.6,1.2l10.4,7.4h1.2
		c0.4-0.2,0.6-0.2,0.9-0.4l0.2-0.2l0.2-0.2l5.5-10.2c0-0.4,0.2-1.1,0.2-1.4c0.2-0.6,0.2-1.1,0.2-1.6c-0.2-1.4-0.9-2.7-1.4-4.1
		c-0.4-1.1-0.9-2-1.1-3.3l2-0.2c0.9,0,1.8,0,2.9,0c0.9,0,1.4,0,2.3-0.2v2c0,0.6,0,1.2-0.2,1.8c0,0.4,0,0.9,0.2,1.2
		c0.8,1.6,2.5,1.8,4.1,2h0.9l2.5-0.4l4.3-1l-0.9-1.6h-0.9c-2.9-0.6-1.6-2-0.8-4.5l2.7-5.9c19.8-11.6,39.7-23,59.9-34.6l61.4,34.4
		l3.1,6.1l1.2,2.9c0.2,1.4-1.2,1.8-2.9,1.6l-0.6,1.6l4.1,1c1.4,0.2,2.7,0.4,4.1,0.4c1.8-0.4,3.7-1,3.6-3.3l-0.2-1.8v-2
		c0.9,0.2,1.6,0.2,2.3,0.2c1.1,0,2,0,3.1,0l2,0.2c-0.4,1-0.6,2-1.1,3.1c-0.2,0.4-0.4,0.9-0.6,1.4c-0.4,0.9-0.8,1.8-1,2.9
		c0,0.6,0,1,0.2,1.6c0,0.4,0.2,1,0.4,1.4l4.7,8.8l0.9,1.6l0.2,0.2c0.2,0.2,0.4,0.2,0.9,0.4h1.2l10.2-7.2l-0.6-1.3
		c-2.7,0.9-3.4,0.5-5.7-1.1c-1.2-1.4-1.4-2.3-0.4-3.9c1.8-1,2.3-1,4.1,0l2.3,5l1.1-0.2l3.4-1c5,2.7,9.7,5.7,14.3,9
		c13.4,9.5,23.6,19.3,38,26.7c13.8,6.6,21.8,16,36.2,4.5c9-7.8,8.4-15.6,9-27.4l-0.2-2.7c-0.4-7.8-2.3-16.3-11.1-18.6
		c-2.9-1.1-8.8-1.8-11.8-2.7c-5-1.2-8.2-2.9-13.1-3.9c-2-0.4-4.1-0.9-6.4-1.2c-6.4-1.2-12.7-2.5-19.3-3.4c-7.2-1.2-10-3.4-17.2-4.7
		l-16-6.1l2.7-5.4l-0.2-0.4V377l-0.3-0.3l-0.2-0.2l-1.4-0.6l-5.2,3.7l-1.2-0.6l-1.4-0.9c0-0.9,0-1.4,0-2c-0.2-6.1-4.5-9.3-10.4-9.3
		l-1.6,0.2c-0.2,0-0.2,0.2-0.4,0.2c-1.1,0.2-2,0.6-3.1,1c-0.9,0.4-1.6,1.1-2.5,1.4l-0.9,0.6l-6.1-2c-14.6-7.8-29.2-15.5-43.7-23.3
		c58.8-33.3,118.6-66.1,178.8-98.9l0.6-1.1C769.7,242.8,769.5,241,767.9,238.7z M484.9,378c-2,0.2-3.9,0.6-5.7,0.9l0,0
		c-1.1,0.2-2,0.4-3.1,0.4l-1.4,0.2c-1.1,0-2,0.4-3.1,0.4c-0.4,0-0.8-0.2-1.2-0.2c-0.9-1.2-1.1-1.6-0.9-2.9l0.2-0.9
		c0.6-1.6,1.4-2.9,2.7-4.1c1.2-1.1,2-1.6,3.7-1.6c1-0.2,2,0,3.1,0.2c1.4,0.4,2.7,1.2,4.3,2c0.8,0.4,1.6,0.9,2.5,1.4l0.6,0.6l0.6,0.6
		l1.6,2.3C487.4,377.5,486.1,378,484.9,378z M638.1,375.1l0.6-0.6l0.9-0.6c0.6-0.4,1.4-1.1,2.3-1.4c1.2-0.6,2.3-1.4,3.7-1.8h0.2
		c0.4-0.2,0.9-0.2,1.2-0.4c3.9-0.4,7.2,0.9,7.4,5.2v0.6c-0.2,0.4-0.2,0.6-0.2,0.9c-0.4,0.6-0.6,0.9-1.1,1.4l-0.9,0.2
		c-1,0.2-1.8,0-2.9,0c-1.2,0-2.7,0-3.9-0.2c-1.8,0-3.7-0.2-5.6-0.2l-3.3-0.6L638.1,375.1z"/>
	<path id="path3593_3_" fill="#FFC200" d="M489.9,388c-3.9-6.8-13.6-5.4-17.4-3.1c-2.9,1.2-4.7,4.5-7.8,5
		c-21.1,4.1-42.1,8.2-66.1,16.3c-0.9,0.2-1.6,3.1-1.6,3.1l-0.4,5.9l64.1-20.4c2.5-0.6,5-1.1,6.6-0.2c2,0.2,1.6,4.7,2.7,6.6
		c0.8,1.4,1.1,2.5,1.8,3.7c1.6,2.3,4.3,3.9,4.7,6.6c0.4,2.3-1.6,4.5-2.3,6.6l3.4,2.5l4.1-7.2c0.9-1.2-1.2-2.9-1.8-4.1
		c-0.8-2.3-1.6-4.5-2.9-6.6c-1.2-2-3.2-3.4-4.1-5.5c-0.9-2-2-4.5-1.2-6.6c0.6-1.4,3.1-1.8,4.7-1.6c1.6,0,3.3,1,4.1,2.3
		c1.2,1.8,1.1,3.7,1.6,5.7c0.2,1.2,1.1,1.8,2.9,1.4l7.5-1.8c0.6-0.4,0.6-1.4,0.4-2L489.9,388L489.9,388z"/>
	<path id="path3595_3_" fill="#FFC200" d="M466.8,403c-0.2-1.2,0-2.3,0-3.2c-0.2-1.2,0.9-2.9-0.2-3.4c-2.7-1.2-4.5,0.4-7.2,1.4
		c-2.9,1.4-6.1,2.7-10,3.6c-5.5,0.9-10.4,2.5-15.6,4.7c0,0-14.8,5.2-15.6,5.5c-0.8,0.2-10.7,4.5-10.7,4.5l-9.3,2.5
		c-3.9,1.2-5,2.5-3.1,6.6l1.6,3.9l0.4,6.6c1.6,2.3,3.9,2.5,5.7,0.9c4.1-2.3,8.4-4.1,12.3-6.4c9.5-6.4,17.2-10.7,26.1-17.9
		c0.8-0.6,1.8-0.9,2.9-1c1.1-0.2,2.3,0,3.2-0.4c0.4-0.2,0.9-0.9,1.2-1.2c3.1-1.6,6.6-2.9,9.8-4.3c1.1-0.6,2.3-1.1,3.2-1.4
		c0.6-0.2,1.4-0.9,2-0.6c0.4,0.4,0.6,1.4,0.2,1.6c-4.5,3.1-10.9,4.5-16,7.4c-1.2,0.9-2.5,1.8-3.7,2.9c-8.6,3.2-22.2,16.8-29.4,19.3
		c-3.1,1-5.2,2.7-8.2,3.9c-1.4,0.4-3.1,0.2-4.1,1.4c-2.5,2.9,3.9,2.5,4.5,2.5c2.7-1.4,3.3-1,5.7,0.4l2.7-0.2c1-1.2,2.3-2.5,3.4-3.7
		c1.6-1.6,3.4-2.7,5.2-4.3c7.5-3.9,16-12.5,22-16.5c4.5-2.9,5.5-4.5,13.1-6.6c1.6-0.6,3.4-0.9,5.2-1.6c3.1-1,3.9-2.9,3.1-4.3
		C467.2,404.6,466.8,403.8,466.8,403L466.8,403z"/>
	<path id="path3597_3_" fill="#FFC200" d="M410.2,445.1c-2.3-1.2-5.7,0-8.2-0.9c-1.4-0.4-2.5-1.6-3.7-2.3c-0.6-0.4-1.8-0.4-2.3-1
		c-0.9-1.1-0.9-4.1-1.8-5.7c-0.9-1.2-2.3-2-2.9-3.4c-1.1-2-0.6-6.6-1.1-9c-0.2-1.2-0.9-2.5-1.1-3.7c0-0.9,0.6-1.4,0.9-2
		c2-2.3,2.3-2.9,2.5-5.7c0.2-1.4,1-2.9,0.6-4.1c-0.4-1.6-5.7,1.4-5.9,2.7c-0.6,1.4-0.9,2.5-1.1,4.1c-0.2,2-0.6,4.1-0.9,6.1
		c0,1.4,0.4,2.9,0.2,4.3c0,1-0.6,1.8-0.6,2.9c-0.4,6.4,1.6,5.2,4.1,10.2c0.9,1.8,1.4,3.9,2.3,5.7c2.9,3.4,5,3.4,7.5,3.7
		c0.6,0,1.4,0,2,0.4c0.9,0.4,0.9,1.6,1.6,1.8c3.1,0.6,5,0.2,8-2.5C410.8,446,410.6,445.3,410.2,445.1L410.2,445.1z"/>
	<path id="path3599_3_" fill="#FFC200" d="M372.5,425.4c1.6-0.2,3.2-0.4,5-0.9c2-0.6,3.2-0.4,3.7-2.7c0.4-1.1,0.6-2.3,0.9-3.3
		c0.2-1.4,0.2-2.7,0.4-3.9c0.2-0.9,1-1.4,1.2-2.3c0-0.2,0-0.6-0.2-0.9c0-0.2-0.2-0.4-0.2-0.4c-0.4-0.4-0.8-0.6-1.2-0.6
		c-3.4,0.4-6.8,1.1-10.2,1.8c-0.2,0-0.4,0.2-0.9,0.4c-0.9,0.9-1.1,2.3-1.2,3.2c-0.2,2.5-0.4,4.7-0.4,7
		C369.1,425.8,370.4,425.6,372.5,425.4L372.5,425.4z"/>
	<path id="path3601_3_" fill="#FFC200" d="M386.6,442.2c-0.4-1.2-0.9-2.5-1.4-3.4c-0.6-1-1.6-1.8-2.5-2.9c-1.8-2.7-2.3-3.7-2.3-6.8
		c0-4.5-5.4-0.4-7.6,0.4c-2.5,0.9-3.7,1.4-3.4,4.7c0,1.6,0.2,3.4,0.9,5.3c0.2,0.6,1.2,0.6,1.4,1.3c0.6,1,0.9,2.3,1.4,3.2
		c0.4,1.1,0.8,2.3,1.8,2.9c0.9,0.6,2.9,0,3.9-0.2C380.7,446,387,444.4,386.6,442.2L386.6,442.2z"/>
	<path id="path3603_3_" fill="#FFC200" d="M394.8,449.2c-0.6,0-3.9-1.8-3.9-1.8c-5.4-1.2-7.2,0.9-12.3,3.2c-0.6,0.2-1.4,0.4-1.8,1.2
		c-0.2,0.4,0.4,0.9,0.6,1.1c0.8,0.9,1.6,1.8,2.7,2.3c1.2,0.4,5.5,0.9,7,0.9c1.3-0.2,7-1.4,8.2-1.8
		C398.5,452.8,399.1,450,394.8,449.2L394.8,449.2z"/>
	<path id="path3605_3_" fill="#FFC200" d="M503.2,378.5l-1.6-1.2l0.2-1.2l43.1-24.2l-7.2-3.7L513.9,362l-19.5,10.7
		c-2.5,1.6-3.1,5-1.6,7c3.4,3.4,6.4,5.9,7.5,11.5l12.5-7.6l32.9-18.5l11.5-6.1l-9-4.5L503.2,378.5L503.2,378.5z"/>
	<path id="path3607_3_" fill="#FFC200" d="M578.1,333.6l-4.3-4.1l-1.6,0.2l-5.4,3.6l6.1,3.4L578.1,333.6L578.1,333.6z"/>
	<path id="path3609_3_" fill="#FFC200" d="M580.8,336.3c-0.9,0.4-3.2,2-4.1,2.5l6.8,4.5l2.5-1.8
		C583.5,338.8,582.6,336.9,580.8,336.3L580.8,336.3z"/>
	<path id="path3611_3_" fill="#FFC200" d="M589.8,340.4l5.6-2.7c-1.6-6.1-6.6-12.3-12.9-14l-6.4,3.3
		C583.2,329.9,586.4,334,589.8,340.4z"/>
	<path id="path3613_3_" fill="#FFC200" d="M593.2,325.6l2.5-0.6c3.9-2.7,7.6-5.7,11.8-8c3.3-1.8,7-2.5,10.4-4.3
		c1.2-0.6,1.8-2,3.1-2.7c1.2-0.9,3.1-0.6,4.5-1.4l3.2-2l-1.2-2c-1.2-0.6-2.5-2-3.7-1.8c-2.9,0.6-5.4,2.9-7.8,4.1
		c-1.6,0.9-3.3,1.4-4.7,2.3c-2,1.1-3.9,2.3-5.7,3.4c-1.6,1.2-3.2,2.5-5,3.4l-6.4,3.1c0,0-6.8,3.1-6.8,2.9l3.2,2L593.2,325.6
		L593.2,325.6z"/>
	<path id="path3615_3_" fill="#FFC200" d="M632.5,308.9c-0.6-0.2-1.2-0.2-1.8,0.2c-4.7,3.1-7.9,5.6-14,8.2c-2,1.1-3.9,2-5.9,3.3
		c-1.4,0.9-2.7,2-4.1,2.9c-3.1,1.8-6.4,2.7-9.3,4.3c-0.6,0.2-1.6,0.9-1.6,1.6c0,1,1.1,1.6,1.6,2.5c0.4,0.9,0.6,1.6,1.2,2.5
		c0.2,0.2,0.4,0.4,0.9,0.4c0.4-0.2,0.6-0.6,1.1-0.9c2.3-1.2,4.5-2.7,7-4.1c2.9-1.8,9.5-4.3,12-6.6c0.4-0.4,0.4-1.1,0.9-1.4
		c2.7-1.8,7.2-3.7,10-5c1.4-0.6,2.7-0.9,3.9-1.6c0.4-0.2,0.9-0.6,0.6-1.2c0-0.9-0.6-1.8-1.1-2.7
		C633.3,310.7,633.1,309.6,632.5,308.9L632.5,308.9z"/>
	<path id="path3617_3_" fill="#FFC200" d="M630.1,300.8c4.7,2.5,4.3,3.1,6.8,7.8c0.4,0.6,1.4,5,2.5,4.7c1.3,0,2-1.4,3.1-2
		c0.9-0.4,1.6-0.9,2.5-1.2c1.2-0.6,0.6-0.6,0-1.4c-0.4-0.6-0.9-1.2-1.1-1.8c-2.5-4.5-4.1-8.2-9.3-10.2c-0.4-0.2-1.1,0.2-1.4,0.4
		c-1.4,0.6-2.9,1-4.1,1.8c-0.6,0.2-1.4,0.9-1.3,1.2C628.2,300.8,629.2,300.5,630.1,300.8L630.1,300.8z"/>
	<path id="path3619_3_" fill="#FFC200" d="M679.3,283.3h-1.8l-3.9,2.5l-6.1,3.4l-6.6,3.3l-6.8,4.1l-5.9,2.9l-2,1.4l0.9,1.6l1.2,2.9
		l1.4,1.4l0.9,0.4l4.1-2.5c0,0,5-2.7,5.9-3.7c1-1,8.8-5,8.8-5l12.2-5.7l0.4-2l-1.1-2L679.3,283.3L679.3,283.3z"/>
	<path id="path3621_4_" fill="#FFC200" d="M641.5,296.9l3.6,1.8l5.2-3.1l8.2-4.7l6.8-4.5l8.6-4.3l1.6-1.4l-1.6-2.5l-3.9-1.1
		l-2.9,1.4l-8,4.1l-8,4.5l-10.4,5.3L638,294l0.6,1.1L641.5,296.9L641.5,296.9z"/>
	<path id="path3623_3_" fill="#FFC200" d="M680.9,277.8l3.1,4.7l3.2,3.4c0.2-0.2,1.2,1,1.2,1l3.2-2.5l1.4-1.8l-0.9-2.5l-4.5-4.5
		l-4.5-3.7l-2.5-1.1l-6.6,3.7l-0.4,1.1l3.2,1L680.9,277.8L680.9,277.8z"/>
	<path id="path3625_4_" fill="#FFC200" d="M691.5,272.6h3.3l5.1-3.7l12.5-6.6l7.4-3.9l2.5-2.5l-0.6-0.9l-1.1-1l-2.3-2.3l-1.8-0.2
		l-2.3,1.8l-25.6,13.6l-3.6,2.3l-0.4,1.1l2.3,1L691.5,272.6L691.5,272.6z"/>
	<path id="path3625_2_" fill="#FFC200" d="M699.7,278.6h3l4.7-3.4L719,269l6.8-3.7l2.3-2.3l-0.5-0.8l-1-1l-2-2.2l-1.7-0.2l-2,1.7
		l-23.6,12.6l-3.2,2.2l-0.3,1l2,1L699.7,278.6L699.7,278.6z"/>
	<path id="path3645_3_" fill="#FFC200" d="M761.3,239.8c-1.6,0.6-19.9,10-19.9,10.7c1.8,1.6,3.9,3.3,3.9,5.2
		c5.7-3.7,11.7-6.1,16.8-9.3c1.2-1.2,2.9-2,3.7-3.3C768.6,241.4,763.7,238.6,761.3,239.8L761.3,239.8z"/>
	<path id="path3647_3_" fill="#FFC200" d="M725.7,254.1l2.9,3.4l2.7,3.1c0-0.2,1.1,0.9,1.1,0.9l1.8-1l3.1-1.4l1.8-1.6l-0.6-1.6
		c0,0-2.7-3.2-3.7-3.7c-1-0.6-4.5-4.1-4.5-4.1c-1.8-2.5-9.3-0.4-9.5,1.8c-0.2,0.4-0.2,0.9-0.2,1.1l2.3,1.2L725.7,254.1L725.7,254.1z
		"/>
	<path id="path3649_3_" fill="#FFC200" d="M658.2,393.4c1.6-0.9,4.3-0.4,6.8,0.2l64.1,20.4l-0.6-5.9c0,0-0.9-2.9-1.6-3.1
		c-24-8-44.9-12.2-66.1-16.3c-3.1-0.4-4.7-3.7-7.5-5c-3.9-2.3-15-4.5-18.8,2.3l-3.3,6.4c-0.2,0.6-0.2,1.6,0.6,2l9,2.7
		c1.6,0.4,2.7-0.2,2.9-1.4c0.4-2,0.4-3.9,1.4-5.7c0.8-1.2,2.7-2.3,4.1-2.3c1.6-0.2,4.1,0.2,4.7,1.6c0.9,2-0.2,4.5-1.3,6.6
		c-0.8,2-2.9,3.4-4.1,5.5s-1.8,4.3-2.9,6.6c-0.6,1.2-2.5,2.9-1.8,4.1l4.1,7.2l3.7-2.5c-0.8-2-2.9-4.3-2.5-6.6
		c0.6-2.7,3.1-4.3,4.7-6.6c1.1-1.2,1.1-2.3,1.8-3.7C656.5,398,656.2,393.6,658.2,393.4L658.2,393.4z"/>
	<path id="path3651_3_" fill="#FFC200" d="M718.3,436.9c-25.4-14.3-41.9-26.1-57.1-33.3c-0.4-0.4-0.4-1.4,0.2-1.8
		c0.4-0.2,1.2,0.4,1.8,0.6c1.3,0.4,2.3,0.9,3.2,1.4c19.3,9.7,36.5,22.2,55.9,31.2c0.4,0.6,1.1,1.1,1.8,1.1
		c5.2-3.7,8.2-17.7,2.9-18.8l-9.5-2.5c0,0-9.7-4.3-10.7-4.5c-9.9-3.4-20.7-8.8-31.2-10.2c-3.7-0.9-7-2-10-3.4
		c-2.7-1.1-4.5-2.7-7-1.4c-1.1,0.6-0.2,2.3-0.2,3.4c0,1.1,0.2,2,0,3.2c-0.2,0.9-0.6,1.6-1.1,2.3c-0.9,1.4,0,3.3,3.1,4.3
		c21.8,12.5,33.8,22.4,49.1,32.6c2.9,0.9,4.5,1.8,11.7-2.7C720.4,437.3,719.8,437.3,718.3,436.9L718.3,436.9z"/>
	<path id="path3653_3_" fill="#FFC200" d="M738.2,408.6c-0.4-1.2-5.7-4.3-6.1-2.7c0.9,10.7,5.2,33.7-17,38c-0.4,0.2-0.6,1-0.4,1.6
		c3.1,2.7,5.1,3.1,8,2.5C739.3,441.7,743.2,424,738.2,408.6L738.2,408.6z"/>
	<path id="path3655_3_" fill="#FFC200" d="M754.5,411.6c-0.2-0.2-0.6-0.2-0.9-0.4c-3.2-0.9-6.8-1.4-10.2-1.8c-0.4,0-0.8,0.2-1,0.6
		c-0.2,0-0.4,0.2-0.4,0.4s0,0.6,0,0.9c0.2,0.9,0.9,1.4,1.1,2.3c0.4,1.2,0.2,2.5,0.4,3.9c0.2,1,0.4,2.3,0.9,3.2
		c0.4,2.3,1.8,2,3.9,2.7c1.4,0.4,3.1,0.6,4.7,0.9c2,0.2,3.4,0.4,3.4-2.3c0-2.3-0.4-4.5-0.6-6.8C755.5,413.8,755.5,412.4,754.5,411.6
		z"/>
	<path id="path3657_3_" fill="#FFC200" d="M752.7,428.3c-2.5-0.9-7.9-5-7.9-0.4c0,3.1-0.2,4.1-2.3,7c-0.6,0.9-1.6,1.6-2.3,2.7
		c-0.9,1-1.2,2.3-1.4,3.4c-0.6,2.3,5.9,3.9,7.9,4.5c1.1,0.2,3.1,0.9,3.9,0.2c0.9-0.6,1.2-1.8,1.8-2.9c0.4-1,0.6-2.3,1.2-3.2
		c0.4-0.6,1.3-0.6,1.4-1.2c0.6-1.8,0.9-3.7,1.1-5.3C756.1,429.7,754.8,429,752.7,428.3L752.7,428.3z"/>
	<path id="path3659_3_" fill="#FFC200" d="M746.6,449.4c-5.2-2.5-7-4.5-12.3-3.3c0,0-3.3,1.8-3.9,1.8c-4.3,0.9-3.4,3.7-0.2,5
		c1.1,0.4,6.8,1.6,8,1.8c1.4,0,5.9-0.4,7-0.9s1.8-1.2,2.7-2.3c0.2-0.2,0.8-0.6,0.6-1.1C748.1,449.8,747.3,449.6,746.6,449.4
		L746.6,449.4z"/>
	<path id="path3661_3_" fill="#FFC200" d="M634.2,380.5c1.4-2-0.9-6.1-3.3-7.8L551.4,329l-6.8,5.2l79.1,42.1l0.2,1.2l-1.8,1.2
		l-79.6-42.5l-4.7,6.1l74.7,41.3l13.8,8.4C627.6,386.4,630.6,383.9,634.2,380.5L634.2,380.5z"/>
	<path id="path3663_3_" fill="#FFC200" d="M529.9,337.7l5.7,2.7c3.2-6.4,6.4-10.4,13.6-13.4l-6.4-3.3
		C536.6,325.4,531.8,331.6,529.9,337.7z"/>
	<path id="path3665_3_" fill="#FFC200" d="M494.8,306.4c10,5.5,27.7,14.2,37.4,19.3l2.3-1.6l3.9-2.3c-6.4-3.1-34.5-18.3-37.2-19.7
		C499.1,301.6,495.3,303.7,494.8,306.4L494.8,306.4z"/>
	<path id="path3667_3_" fill="#FFC200" d="M490.4,315.3c5.5,3.1,30.4,17,35.5,19.5c0.2,0,0.4-0.2,0.6-0.4c0.6-0.9,0.9-1.6,1.2-2.5
		c0.6-0.9,1.7-1.4,1.7-2.5c0-1.8-32-18.7-35.5-20.9C489.4,310,490.1,315.1,490.4,315.3L490.4,315.3z"/>
	<path id="path3669_3_" fill="#FFC200" d="M478.8,309.8c4.3,2,5.9,3.7,7.2,3.7c1.8-8,7.9-12.3,11.5-13.6c0.2-0.4-0.6-1.1-1.2-1.2
		c-0.6-0.4-4.7-2.5-5.5-2.3C485.1,298.3,480.6,305.7,478.8,309.8L478.8,309.8z"/>
	<path id="path3671_3_" fill="#FFC200" d="M447.1,282.7c-3.1,0.2-4.5,4.3-3.9,7c9.5,4.5,18.6,9.8,27.7,15.2l4.7,3.1
		c0.6-2.7,1.6-4.7,3.7-7l-2-1.4C467.5,295,456.4,288.5,447.1,282.7L447.1,282.7z"/>
	<path id="path3673_3_" fill="#FFC200" d="M450.9,281.7c10,5,20.7,11.5,30.4,17c1.2-1.8,3.4-3.3,6.1-4.5l-2.7-1.6
		c-9.8-5-20.7-11.1-30.6-16.3C451.1,276.7,447.1,278.6,450.9,281.7z"/>
	<path id="path3675_3_" fill="#FFC200" d="M432.1,283.5l1.4,1l5.4,2.5c2-8.2,8.4-12,12.1-12.5l-6.8-3.4
		C439.1,272.6,433.4,279,432.1,283.5z"/>
	<path id="path3677_3_" fill="#FFC200" d="M434,272.6l4.3-1.2l2.3-1l-0.4-1.1l-3.6-2.3l-25.6-13.6l-3.1-1.6
		c-2.7,1.4-4.1,2.5-4.7,5.4C410.8,260.7,426.2,268.1,434,272.6L434,272.6z"/>
	<path id="path3691_3_" fill="#FFC200" d="M384.1,250.5c0-0.6-19.1-10.4-20.9-11.1c-2.9-1.4-6,3.9-3.7,5l3.7,2
		c5.1,3.1,11.1,5.5,17,9.3C380,253.8,382.1,252.1,384.1,250.5z"/>
	<path id="path3693_3_" fill="#FFC200" d="M404.7,249.8c-0.2-1-7-3.9-7.5-3.9c-4.1,0.6-8.6,5.4-10.9,9l-1.1,2.7l8.2,4.7
		C395,257.2,401.1,251.7,404.7,249.8L404.7,249.8z"/>
	<path id="path3695_3_" fill="#FFC200" d="M473.2,393.2c0,1.4,1.1,2.7,2.5,2.7s2.7-1.2,2.7-2.7c0-1.4-1.3-2.7-2.7-2.7
		S473.2,391.7,473.2,393.2z"/>
	<path id="path3697_3_" fill="#FFC200" d="M651,393.2c0-1.4-1-2.7-2.5-2.7c-1.4,0-2.7,1.2-2.7,2.7c0,1.4,1.2,2.7,2.7,2.7
		C650,395.9,651,394.6,651,393.2z"/>
	<path id="path3699_2_" fill="#1F221D" d="M767.6,618.6c-6.1-5.4-13.4-7.5-20.8-7.5h-0.2c-0.2,0-0.2,0-0.4,0H571.7l29-38.3l13.4-1.6
		l9-12H611l1.4-2l12.7-0.9l7.5-9.9l-10.4-2.3l1.6-2.3l11.3,1l9.5-12.5h-17l-5.4-17.2l-9.5,12.5l2.9,9.8l-1.1,1.4l-4.3-8l-7.4,10
		l1.2,11.7l-1.4,2l-2-11.1l-8.8,12l1.8,14l-27.9,36.9v-30.2l9.7-9.7v-15.2l-9.7,7.5v-2.5l9.7-8.6v-12.5l-9.7,5v-3.1l9.7-5.9v-15.7
		l-13.6,10.4l-14.1-10.4v15.8l8,5.9v2l-8-3.9v12.5l8,8.6v2.5l-8-7.5v15.2l9.7,9.8v30.8l-28.5-37.8l1.8-14l-9-12l-2,11.1l-1.4-2
		l1.4-11.7l-7.6-10l-4.1,8l-1.2-1.4l2.9-9.8l-9.4-12.5l-5.4,17.2h-17l9.5,12.5l11.3-1l1.8,2.3l-10.4,2.3l7.3,9.9l12.7,0.9l1.4,2
		h-12.1l9,12l13.6,1.6l29,38.3H378.8c-7.5-0.2-15.2,2-21.5,7.5c-28.1,27.9,12.5,62.8,29.2,33.9c4.5-12.5-7.6-18.5-18.8-14.8
		c-1.1-10.9,16-13.8,24-8.2l16.2,15.8l15,14.1c20.4,16,36.7,22,52.8,19.5c13.6-2,27.1-10,42.8-22.8c7-6.4,13.1-11.3,19.3-14.3
		l-61.8,82.1l-0.2-0.4l-5.4-16.3l-4.3-0.6c-0.4,20.4-5.6,37.6-14.8,55l2,1.6c7.2-7,14.5-12.3,22.4-16.8c8-4.7,16.6-8.6,26.1-12.1
		l-1.6-3.9l-17.4-1l69.1-91.8c1.8-0.2,3.7-0.2,5.7-0.2v128.7l-14.3-9.8l-3.7,2c11.7,16.6,18.1,33.5,20.9,53h2.5
		c3.2-20.1,10.7-36,21.1-53l-3.4-2l-14.5,10V637.7c1.6-0.2,3.2-0.2,5-0.2l69.4,92l-17.7,1l-1.4,3.9c10.7,4.1,20.5,8.6,29.7,14.3
		c6.4,4.1,12.5,8.8,18.5,14.5l2-1.6c-9.3-17.4-14.1-34.7-14.8-55l-4.1,0.6l-1.6,4.7l-3.9,11.8l-63.2-83.8c7.4,3.1,14.5,8.2,22.9,16
		c16.2,13.4,29.9,21.3,44.2,22.9c15.6,1.8,31.6-4.1,51.3-19.7l15-14.1l17-15.4c7.4-6.4,24.2-5,23.3,7.8c-12.2-4.3-24.7,4.5-19.1,16
		C754.8,682.4,795.8,646.5,767.6,618.6L767.6,618.6z M526.4,625.9L526.4,625.9l-32.6,15c-6.8,3.2-12.7,5.5-18.3,7
		c-20.1,5.2-33.8-1.4-52.1-15.4c-8-5.9-15.8-12-24-16.3h152.3C543.4,617.9,535,621.4,526.4,625.9z M701.5,632.5L701.5,632.5
		c-17.9,13.8-31.5,20.4-50.7,15.8c-5.9-1.4-12.3-3.9-19.7-7.4l-30.2-15c-8.6-4.7-16.8-8-24.9-9.7h149.5
		C717.3,620.6,709.5,626.6,701.5,632.5L701.5,632.5z"/>
	<path id="path3701_2_" fill="#BBC1C1" d="M371.8,623.4c-21.5,5.4-20.4,34.5,0.4,32.9c16-2.3,3.4-19.7-1.2-6.1
		C353.5,650.2,361.8,627.8,371.8,623.4z"/>
	<path id="path3703_2_" fill="#BBC1C1" d="M752,623.4c21.5,5.4,20.4,34.5-0.4,32.9c-16-2.3-4.5-18.8,1.4-6.1
		C770.2,650.2,762,627.8,752,623.4z"/>
	<path id="path3705_2_" fill="#BBC1C1" d="M511.8,654c-25.8,21.3-51.7,26.3-81.3,4.5C466.8,672.8,481.8,667.2,511.8,654L511.8,654z"
		/>
	<path id="path3707_2_" fill="#BBC1C1" d="M613.4,654c25.8,21.3,51.7,26.3,81.3,4.5C658.4,672.8,643.5,667.2,613.4,654L613.4,654z"
		/>
	<path id="path3709_2_" fill="#BBC1C1" d="M457.2,754.2c5.5-12,10.2-24.7,10.2-37.8c1.4,6.4,2.3,13.1,7.6,17.9
		C468.9,739.4,463.6,746.4,457.2,754.2L457.2,754.2z"/>
	<path id="path3711_2_" fill="#BBC1C1" d="M561.1,801.9c-1.6-12.7-5.4-24.2-12.7-36l12.2,10.7L561.1,801.9L561.1,801.9z"/>
	<path id="path3713_2_" fill="#BBC1C1" d="M627.4,733.7c24-0.4,25.2,0.9,36.9,22C654.1,745.6,640.8,738.5,627.4,733.7L627.4,733.7z"
		/>
	<path id="path3715_4_" fill="#FFC200" d="M520.7,831.4c-5.7-3.7-12.5-6.4-20.1-8.8c-0.4-0.2-0.6-0.4-1.1-0.4
		c0.4,0.2,0.6,0.4,1.1,0.9c11.5,8.2,17,16.3,20.1,24.9c1.8,5,2.7,10.2,3.6,15.8l12.5-1.2l3.1-0.4c-0.9-4.1-1.8-7.8-3.1-11.1
		C533,841.9,527.7,835.9,520.7,831.4z"/>
	<path id="path3717_4_" fill="#FFC200" d="M520.7,142.1c2-0.9,4.3-1.4,6.6-2c-0.6-12.5-2-27.1-6.6-41.9c-3.2-10.4-8-21.1-14.8-31.5
		c-1.8,0.6-3.6,1.2-5.4,1.8c-8.4,2.9-16.6,6.4-24.7,10.4c-0.6,0.2-1.2,0.6-1.8,1.1c0.6,0.6,1.2,1.2,1.8,1.8
		c9,9.7,17.7,22.2,24.7,34.5c5.7,10,10.2,19.9,13.4,28.1C516.1,143.7,518.4,142.9,520.7,142.1L520.7,142.1z"/>
	<path id="path3719_4_" fill="#FFC200" d="M374.5,174.1c1.4,0.9,3.1,1.6,4.5,2.5c16,8.6,36.3,11.3,56.2,7.8
		c12.3-2,24.4-6.6,35.5-13.6c1.8-1,3.4-2.3,5.1-3.4c0.6-0.4,1.2-0.9,2-1.4l-0.6-0.2c-0.4-1.2-0.9-2.5-1.4-3.7
		c-1.4-3.9-2.9-8.2-5.1-13.1c-5.6-12.7-15-28.3-34.7-42.9v0.2c-0.2,0.2-0.6,0.4-0.9,0.6c-6.1,5.6-16,16.5-20.9,22.4
		c7.4,3.4,14.3,7.4,20.9,11.8c9.5,6.6,17.9,14.8,24.7,25.6c-7.2,4.7-15.8,7.6-24.7,8.6c-14.5,1.6-29.7-2.3-40.8-11.7
		c-4.5-3.9-3.9-10.2,1.1-13.4c-6.8,0-12.3,0.6-16.5,1.8C364.8,156.2,364.6,166.5,374.5,174.1z"/>
	<path id="path3721_4_" fill="#FFC200" d="M252.2,437.9c7.8-5.9,13.4-15.8,16-28.3h0.2c4.1-18.5,6.4-35.3,7.4-51.9
		c1.4-19.1,1-37.6,0-57.3c-3.1-39-6.6-54-20.4-75.5c-1-1.4-2-2.9-3.2-3.9c-15.8-15.2-52.8-8.4-55,19.1c-0.6,20.1,12.7,34.3,32,30.6
		c19.1-2.7,21.1-25.4,8-35.1c-9.5-7.2-28.8,0.4-18.8,13.1c5.2,6.1,12,0.9,14-0.9l1.2,3.9c-5,5.5-14.1,7.2-20.8-2
		c-10.7-18.5,18.6-33.9,34-12.3c2,2.7,3.7,5.4,5.4,8.2c11.5,20.4,14.8,44.8,14.5,76.1h-1.6c-1.4-8.4-0.6-17.2-4.7-27.6
		c-2-5-5-7.5-8.2-8.8c-9-3.2-20.4,5.7-19.3,15c8-1,14.5,4.3,19.3,13.4c12.2,22.6,14,68,5,94.9c-1.2,4.1-2.9,7.8-5,10.7
		c-3.1,4.7-6.8,8-10.9,9.5c-9.3,1.8-16,0.4-20.4-3.2c-9.5-8-6.6-22,2-26.5c6.6-3.3,19,0.2,17.7,8.6l-1.8,2.7
		c-4.5-11.5-14.1-8.2-17-1.4c-2.5,6.4-0.2,16,15.8,14.1c15.4-3.4,14.3-22.9,8-28.5c-32.9-28.5-69.1,30.6-21.1,48.7
		C235.7,445.5,244.9,443.5,252.2,437.9z"/>
	<path id="path3723_4_" fill="#FFC200" d="M475.9,89.5c-1.6-2-3.2-4.1-5.1-5.9c-0.4-0.4-0.9-0.9-1.2-1.2c-0.6,0.4-1.1,0.6-1.6,1
		c-9.7,5.5-18.8,12-27.5,19.1c-0.2,0-0.4,0.2-0.6,0.4c13.1,9,22.9,18.6,31,27.7c1.8,2.3,3.4,4.3,5.1,6.4
		c5.9,7.2,10.7,14.2,14.5,19.9c3.3-2,6.8-4.1,10.1-5.9c0.4-0.2,0.8-0.4,1.2-0.6c-0.4-1.4-0.9-3.1-1.2-5
		C496.7,129.3,489,106.8,475.9,89.5z"/>
	<path id="path3725_4_" fill="#FFC200" d="M326.7,171c4.1,3.9,8.4,7.5,12.9,11.1c12.2,9.3,25.2,15.8,39.4,19.9
		c9.7,2.7,19.7,4.1,30.4,4.7c8.6,0.6,17.4,0.2,25.8-1.1c3.4-0.5,7-1.2,10.4-2c24-4.8,48.5-12,72.7,5l-0.4-2.7
		c-4.7-12.3-18.6-17.2-30.4-15.8c-5.1,0.6-15,4.3-20,6.1c1.1-0.4,2.2-1,3.2-1.4c1.6-0.6,3.4-1.4,5.1-2.5c1.1-0.4,2-1.1,3.3-1.6
		c8.8-4.7,15-8.4,21.3-12.9c2.5-1.6,5-3.2,7.5-5.4c0,0,0.4-0.2,1-0.6c3.3-2.9,7.6-6.1,11.5-7.2c2.9-0.6,5.6-0.2,7.9,2.5l-1.4,1.2
		c-1.6-2-3.9-2.3-6.4-1.6c-2.9,0.9-6.1,3.1-8.8,5.4c-1.1,3.3,0.6,7.8,4.3,10.2c1.4,0.6,2.9,0.9,4.5,0.9c6.6-0.4,13.8-6.4,16-13.8
		c1.1-2.9,1.1-6.1,0-9.3v-0.2c-3.2-7.2-8.6-10.4-16-9.3c-3.9,0.9-8.2,2.5-13.1,5.5c-2.5,1.6-4.7,3.1-7,4.7
		c-8.2,5.6-16.5,10.9-24.7,15.4c-1.6,1-3.4,1.8-5.1,2.9c-3.6,1.6-7,3.2-10.4,4.7c-8.4,3.3-16.8,5.7-25,7.2
		c-19.3,3.4-38,1.6-56.2-7.2c-13.6-6.4-26.7-16.6-39.4-31.2c-0.4-0.4-0.8-0.9-1.2-1.2c-3.9-4.5-9.3-9.5-7.4-16.6
		c0.6-2.7,2.5-4.5,4.7-5.7c1.1-0.6,2.5-1.1,3.9-1.2c1.1-0.2,2-0.2,3.3,0c3.9,0.6,7.8,3.1,9,8l-2.9,0.6c-1-3.4-3.7-5.2-6.6-5.5
		c-1.1-0.2-2-0.2-2.9,0c-1.1,0.2-1.8,0.4-2.7,0.9c-1.4,0.9-2.7,2-3.1,3.7c-0.6,2.5,0.2,5.7,3.4,10c0,0,0,0,0-0.2
		c0.6,0.9,1.4,1.4,2.3,1.8c4.3,2.5,9.7,1.2,14-3.7c5.7-7.8,0.9-20.1-14-22.4c-1.8-0.2-3.9-0.4-5.9-0.4c-2.5,0.2-5,0.9-7,1.6
		c-16,5.6-20.9,24.9-3.7,44.8C324.2,168.4,325.4,169.8,326.7,171L326.7,171z"/>
	<path id="path3727_4_" fill="#FFC200" d="M540.8,136.7c3.4-0.4,7-0.9,10.4-1.2c0.2,0,0.6,0,1.1,0c2.9-21.5,3.9-46,4.1-77
		c0,0,0,0-0.2,0c-1.6,0-3.2,0.2-5,0.2c-5,0.2-9.8,0.6-14.5,1.2c-5.4,0.9-10.7,1.6-16,2.9c-3.4,0.9-6.8,1.6-10,2.5l-0.2,0.2
		c3.7,5.5,7.2,11.1,10.2,16.6c7,12.9,12.3,25.6,16,38C538.4,125.8,539.7,131.4,540.8,136.7L540.8,136.7z"/>
	<path id="path3729_4_" fill="#FFC200" d="M289.3,516.5c2.3-4.7,3.7-10.7,4.5-17.9L293.6,210h96.7c-3.7-1.1-7.4-2-11.3-3.4
		c-13.1-4.3-27.2-11.1-39.4-19.5c-4.7-3.2-9-6.8-12.9-10.4c-9.7-9-16.6-19.5-18.4-31c-2.3,5.4-6.8,13.1-10.7,18.1
		c6.1,13.1,15.8,23.6,29.2,30.8c1.6,0.9,3.4,1.6,5.2,2.5l-1.8,2.7c-1.2-0.6-2.3-1.2-3.2-1.6c-15.2-8-23.3-16-31.3-30.4
		c-1.6,2.3-3.7,4.5-5.9,6.8c-0.9,1-1.8,2-2.9,3.2c0.6,1.8,1.6,3.7,2.9,5.5c6.1,8.6,17.9,16.8,20.4,17.2l-2.3,2.5
		c-7.6-3.9-13.6-9.3-18.1-14.3c-2.3-2.9-4.1-5.5-5.5-8c-3.1,3.3-7.6,7.8-10.7,10.7c4.5,1.6,10.9,8.2,11.7,11.5l-2.7,2
		c-2-4.7-6.6-9.3-12-11.1l-10,7.4c6.1,2,9.7,7.8,12.1,12.3l-3.2,2.7c-1.4-5.3-7.4-10.9-12.9-12.3l-3.9,2.3l-5.9,3.9
		c2,1.2,4.1,2.7,5.9,4.5c11.1,9.9,18.7,26.3,23,45.3c7.5,33.1,7.2,73.2,5.3,98.1c-1.1,13.6-2.7,35.1-7.2,53.5
		c-4.1,13.8-10.7,26.1-21.1,32.6c-6.6,4.3-14.5,6.4-24.4,5c6.4,7.8,9.8,13.8,21.1,12.2c1.2-0.2,2.3-0.4,3.2-0.9
		c22.2-6.1,28.1-26.1,32.2-45.1l1.8,6.6c-4.7,25.2-18.3,39-34,43.1c-2.7,0.6-5.4,1.1-8,1.1l6.4,10.9c0.6,0.2,1.1,0.4,1.6,0.6
		c11.1,2.7,33.1-10.9,31.9-25.4l2.3,5.7c0.9,12-22.9,26.3-33.3,23.4l3.7,13.6c4.7,5.4,25.6,0.4,28.3-11.1l3.1,2.3
		c-3.4,10.4-24.4,20.6-32.6,11.7c-1.2,0.9-2.3,1.6-3.2,2.5c-8.8,8-7.2,19.5,0,26.5c2.9,2.7,6.8,4.7,11.1,5.6
		C275.5,533.2,284.4,528,289.3,516.5L289.3,516.5z"/>
	<path id="path3731_4_" fill="#FFC200" d="M403.2,145.3l9.7,21.5c4.3,3.4,12.3,4.7,22.4,3.9c5.2-0.6,10.4-1.4,16.5-3.1
		c-6.6-2.9-12-5.6-16.5-8.6c-9.3-6.1-15.8-13.4-24-26.3l-3.3-6.1c8-10.4,17.2-20.1,27.4-28.5c10.9-9.3,22.9-17.2,35.5-23.8
		c1.6-0.9,3.4-1.6,5.1-2.5c0.9-0.4,1.6-0.9,2.3-1.2c7.4-3.3,14.8-6.4,22.4-8.8c3.1-1.1,6.1-1.8,9.3-2.7c3.6-1,7.2-1.8,10.9-2.7
		c5.4-1.2,10.7-2,16-2.7c4.7-0.6,9.7-1,14.5-1.2c2.7-0.2,5.4-0.2,8-0.2c2.5,0,5.2,0,7.9,0.2c5,0.2,9.8,0.6,14.5,1.2
		c5.4,0.6,10.9,1.4,16,2.7c3.7,0.9,7.4,1.6,10.9,2.7c3.1,0.9,6.1,1.6,9.3,2.7c7.6,2.5,15.2,5.5,22.4,8.8c0.9,0.4,1.4,0.9,2.3,1.2
		c1.6,0.9,3.6,1.6,5.2,2.5c12.7,6.6,24.7,14.5,35.5,23.8c10,8.4,19.3,18.1,27.4,28.5l-3.3,6.1c-8.2,12.9-14.8,20.1-24,26.3
		c-4.5,3.1-9.9,5.7-16.3,8.6c5.7,1.6,11.3,2.7,16.3,3.1c10,0.9,18.1-0.4,22.4-3.9l9.6-21.5l3.6-8l7-15.4c0,0,0,0,0.2,0
		c-10.7-19.1-25.4-35.1-42.7-47.8c-10.9-8-22.8-14.8-35.5-20.4c-1.6-0.9-3.4-1.4-5.2-2.3c-8-3.1-16.2-5.7-24.7-8
		c-6.6-1.6-13.4-3.1-20.1-4.1c-5.1-1.1-10.7-1.6-16-2c-4.7-0.4-9.6-0.9-14.5-0.9c-2.7-0.2-5.4-0.2-7.9-0.2c-2.7,0-5.4,0-8,0.2
		c-5,0-9.8,0.4-14.5,0.9c-5.4,0.4-10.7,1-16,2c-6.8,1-13.6,2.5-20.1,4.1c-8.4,2.3-16.6,5-24.7,8c-1.6,0.9-3.4,1.4-5.1,2.3
		c-12.7,5.5-24.7,12.3-35.5,20.4c-17.2,12.7-31.9,28.8-42.5,47.8l7,15.4L403.2,145.3L403.2,145.3z"/>
	<path id="path3737_4_" fill="#FFC200" d="M617.7,68.5c-1.8-0.6-3.4-1.2-5.4-1.8c-6.8,10.2-11.5,20.9-14.8,31.5
		c-4.3,14.8-5.9,29.4-6.4,41.9c2,0.6,4.3,1.2,6.4,2c2.5,0.9,4.7,1.6,6.8,2.5c3.1-8.2,7.8-18.1,13.4-28.1c7-12.3,15.6-24.9,24.7-34.5
		c0.6-0.6,1.2-1.3,2-1.8c-0.9-0.4-1.4-0.9-2-1.1C634.4,74.9,626.2,71.4,617.7,68.5z"/>
	<path id="path3739_4_" fill="#FFC200" d="M617.7,145.3c-0.4,1.8-0.8,3.4-1.2,5c0.4,0.2,0.9,0.4,1.2,0.6c3.3,1.8,6.8,3.9,10,5.9
		c4.1-5.7,8.6-12.7,14.5-19.9c1.6-2,3.2-4.1,5.2-6.4c8-9,17.9-18.6,31-27.7c-0.2-0.2-0.4-0.4-0.4-0.4c-8.6-7.2-18.1-13.6-27.7-19.1
		c-0.4-0.4-1.1-0.6-1.4-1c-0.2,0-0.2,0-0.2,0c-0.4,0.4-0.9,0.8-1.2,1.2c-1.8,1.8-3.4,3.9-5.2,5.9
		C629.2,106.8,621.6,129.2,617.7,145.3L617.7,145.3z"/>
	<path id="path3741_4_" fill="#FFC200" d="M723.9,163.6c-11.1,9.5-26.3,13.4-40.8,11.7c-8.8-1-17.2-3.9-24.7-8.6
		c6.8-10.9,15.2-19.1,24.7-25.6c6.6-4.5,13.8-8.4,20.9-11.8c-5-5.9-14.8-16.8-20.9-22.4c-0.2-0.2-0.4-0.4-0.6-0.6
		c-0.2,0-0.2-0.2-0.2-0.2c-19.7,14.5-29.2,30.2-34.7,42.9c-2,5-3.7,9.3-5.2,13.1c-0.4,1.3-1,2.5-1.4,3.7l-0.4,0.2
		c0.6,0.6,1.2,1.1,1.8,1.4c1.6,1.2,3.6,2.5,5.2,3.4c11.1,7,23.3,11.5,35.5,13.6c19.9,3.4,40.3,0.9,56.2-7.8c1.6-0.9,3.1-1.6,4.5-2.5
		c10.1-7.5,9.7-17.9-4.5-22c-4.1-1.2-9.7-1.8-16.2-1.8C728,153.3,728.7,159.8,723.9,163.6z"/>
	<path id="path3743_4_" fill="#FFC200" d="M778.8,147.2c0.6-0.4,1.4-1,2.3-1.8c0,0.2,0,0.2,0,0.2c3.1-4.3,3.9-7.5,3.2-10
		c-0.4-1.6-1.6-2.9-3.1-3.7c-0.9-0.4-1.6-0.6-2.5-0.9c-1-0.2-2-0.2-3.1,0c-2.9,0.4-5.5,2-6.4,5.5l-3.1-0.6c1.2-5,5.2-7.4,9-8
		c1.2-0.2,2.3-0.2,3.4,0c1.2,0.2,2.7,0.6,3.9,1.2c2,1.2,3.9,3.1,4.5,5.7c1.8,7.2,0,12-4.1,16.3c-1.4,1.6-2.9,3.1-4.3,4.5
		c-13.4,13.1-26.3,22.6-39.6,28.8c-18.3,8.4-36.7,10.2-56.2,6.4c-10.9-2.3-22-6.4-33.5-12.3c-0.6-0.2-1.4-0.4-2-0.9
		c-1.6-0.6-3.4-1.4-5.2-2.3c-5.6-2.5-10.9-5.4-17-8.8c-2-1.2-4.7-3.1-7.6-5.2c-6.1-4.1-13.4-9.3-20.1-10.4c-6.1-1.4-11.8,0.4-16,8.8
		c0,0.2-0.2,0.4-0.2,0.6c-1.4,3.7-1.1,7.4,0.2,10.9c2.7,6.6,9.7,12,16,12.1c1.8,0.2,3.7,0,5.4-0.9c3.7-2.5,3.9-5.7,3.1-9
		c-2.7-2-5.6-4.1-8.4-5.2c-2.5-0.9-5-0.9-6.8,1.4l-1.4-1.4c2.3-2.7,5.4-3.1,8.2-2c3.9,1.1,7.9,4.1,11.1,7c0.6,0.2,1.1,0.6,1.1,0.6
		c2.9,2,5.5,3.9,8,5.4c6.4,3.9,12.7,6.8,21.5,11.5c1.1,0.6,2,1.2,3.1,1.6c1.6,1.1,3.6,1.8,5.2,2.5c0.2,0.1,0.4,0.2,0.6,0.3
		c-5.4-1.9-12.6-4.5-16.6-5c-12-1.4-26.5,3.4-31.5,15.8l-0.4,2.7c26.7-18.6,48.7-8.4,78.8-3.7c1.5,0.3,3,0.5,4.5,0.8
		c8.6,1.2,17.2,1.6,25.8,1.1c10.7-0.6,20.9-2,30.4-4.7c14.2-4.1,27.4-10.7,39.6-19.9c4.3-3.4,8.6-7.2,12.7-11.1
		c1.3-1.2,2.7-2.7,3.9-3.9c17-19.9,12.2-39.2-3.9-44.8c-2-0.9-4.5-1.4-7-1.6c-2,0-4.1,0.2-5.7,0.4c-14.8,2.3-19.7,14.5-14.1,22.4
		C769,148.5,774.4,149.6,778.8,147.2L778.8,147.2z"/>
	<path id="path3745_4_" fill="#FFC200" d="M594.1,863.6c0.9-5.5,1.8-10.9,3.4-15.8c3.1-8.6,8.6-16.6,20.1-24.9
		c0.4-0.4,0.6-0.6,1.1-0.9c-0.2,0-0.6,0.2-1.1,0.4c-7.5,2.5-14.3,5.2-20.1,8.8c-7,4.5-12.3,10.4-16,19.7c-1.2,3.1-2.3,6.8-3.1,10.9
		l3.1,0.4L594.1,863.6L594.1,863.6z"/>
	<path id="path3747_4_" fill="#FFC200" d="M865.8,444.6c-10.2-6.8-16.6-19.3-20.6-33.3c-4.7-18.5-6.4-40.1-7.4-53.5
		c-2.5-34.3-2.3-98.3,17.9-132c2.9-4.7,6.1-8.6,10-11.7c1.8-1.6,3.9-2.9,6.1-4.1l-6.1-4.1l-3.6-2.3c-5.5,1.4-11.5,7-12.9,12.3
		l-3.3-2.7c2.7-4.5,5.9-10.2,12.2-12.3l-10-7.4c-5.4,1.8-9.8,6.4-11.7,11.1l-2.9-2c0.9-3.3,7.2-9.9,11.7-11.5
		c-2.9-2.9-7.6-7.4-10.7-10.7c-1.4,2.5-3.2,5.2-5.6,8c-4.5,5.2-10.4,10.4-18.1,14.3l-2-2.5c2.5-0.4,14-8.6,20.1-17.2
		c1.3-1.8,2.3-3.7,2.9-5.5c-1-1.2-1.8-2.3-2.9-3.2c-2.3-2.3-4.3-4.5-5.9-6.8c-8,14.3-16.2,22.4-31.5,30.4c-1.1,0.4-2,1.1-3.3,1.6
		l-1.8-2.7c1.8-0.9,3.4-1.6,5.2-2.5c13.4-7.2,22.9-17.7,29.4-30.8c-4.1-5-8.4-12.7-10.9-18.1c-1.8,11.5-8.8,22-18.5,31
		c-3.9,3.7-8.2,7.2-12.7,10.4c-12.3,8.4-26.5,15.2-39.6,19.5c-3.8,1.4-7.3,2.4-11.3,3.4h96.7v288.7c0.6,7.2,2,13.1,4.3,17.9
		c5,11.5,13.8,16.6,26.1,15.4c4.1-0.9,7.8-2.7,10.7-5.2c7.5-7,9.5-19.1,0-27.4c-0.9-0.9-1.8-1.4-2.9-2c-8.2,8.8-29.2-1.2-32.6-11.7
		l3.1-2.3c2.9,11.5,23.6,16.4,28.3,11.1l3.7-13.6c-10.2,2.9-34-11.5-33.3-23.4l2.3-5.7c-1.1,14.5,20.1,27.7,31.5,25.4
		c0.6-0.2,1.4-0.4,2-0.6l6.4-10.9c-2.9,0-5.7-0.6-8.4-1.2c-15.6-4.1-29-17.9-33.7-42.9l2-6.6c3.9,18.8,9.9,38.6,31.7,45.1
		c1.2,0.4,2.5,0.6,3.7,0.9c11.3,1.6,14-3.7,20.4-11.5C880.1,450.8,872.1,449,865.8,444.6L865.8,444.6z"/>
	<path id="path3749_4_" fill="#FFC200" d="M847.7,536.6c-9.7-2.9-14,1.8-15.8,10.2c-2.7-5.4-2.5-10.2-2.9-17c0-0.6-0.2-1.2-0.2-1.8
		c-5.7,6.4-7.6,13.6-4.1,22l4.3,9.7l2.9,6.6l4.1,24.7c-2.3-2.7-5-5.2-7-7.8c-0.2-0.2-0.4-0.4-0.6-0.6l-4.3-8.8
		c-0.4,5.9-2.5,12.2-0.9,17.9c1.2,4.7,3.2,7.8,5.7,11.7c0.4,0.6,0.9,1.2,1.3,2c14.3,24.9,14.8,24.9,11.5,53
		c-4.7-3.1-8.2-8-10.7-15.2c0.2-3.9,1.2-5.5,0.6-9.5c-0.2-1.4-1.4-2.7-2.7-3.9c-1.6-1.4-3.2-2.7-4.1-4.3c0-5.7,4.5-10.7,0.4-15.6
		l-4.1-5.9c-1.4,11.3-2.9,14.2-4.7,25.2c-0.6,4.7-2,14.2-3.9,18.6c-4.3,10.4-11.3,13.8-9,27.5c2.3,14.3,7.2,28.5-1.8,50.7l-5.5,11.7
		l-4.5-3.9l-1.1-1c0.4-0.4,0.9-1.1,1.1-1.4c6.6-10.2,2.9-17,0-23.6v-0.2c-0.9-4.3-1.1-12.2,0-16.8c0.2-0.4,0.2-0.6,0.2-1
		c0,0.2,0,0.2-0.2,0.4c-3.1,5-8.4,13.1-11.5,17.7c-0.4,0.9-0.9,1.4-1.2,2c-3.1,4.3-6.1,8.8-8,13.6c-1.8,5-2,8.8-3.1,14
		c-3.2,12.1-1.2,23.2-7.5,32c-11.7,13.8-10.9,5.2-7.4-4.1c-0.9-2-3.4-3.7-3.4-5.9c-0.2-3.4,2-4.3,2.7-7.6l2.5-10.9
		c-5,5.9-9.9,12.1-15.2,17.9c-2.3,2.5-4.5,4.7-7,6.8c-5.7,5.3-10.7,9-16.6,14c-3.1,2.5-5.7,6.1-8.6,9.3c-2,2-7,4.7-9.9,5.7
		c-4.5,1.8-9.3,3.7-14.1,5.5c-11.7,4.3-24,8.6-35.5,14.1c-1.6,0.9-3.4,1.8-5.2,2.7c-9.3,5.2-17.7,11.1-24.7,18.8
		c-1.8,2-3.7,4.5-5.4,6.8c-6.6,9.7-11.1,19.1-14,28.8l-0.9-0.2l-16-2h-0.4l-1.4,12.5l-12-1.8c0,2.5-0.4,4.7-0.8,7
		c-1.3,7.8-4.7,14.1-7.9,15.6c-3.2-1.4-6.8-7.8-8-15.6c-0.4-2.3-0.6-4.5-0.6-7l-12.2,1.8l-1.4-12.5h-0.4l-16,2l-0.9,0.2
		c-2.9-9.7-7.4-19.1-13.8-28.8c-1.8-2.3-3.4-4.7-5.5-6.8c-7-7.8-15.4-13.8-24.7-18.8c-1.6-0.9-3.2-1.8-5.1-2.7
		c-11.3-5.5-23.6-9.9-35.5-14.1c-4.7-1.8-9.7-3.7-14.1-5.5c-2.9-1.1-7.9-3.7-9.9-5.7c-2.9-3.1-5.4-6.8-8.4-9.3
		c-6.1-5-11.1-8.6-16.8-14c-2.5-2-4.7-4.3-7-6.8c-5.4-5.7-10-11.8-15.2-17.9l2.5,10.9c0.9,3.3,3.1,4.1,2.9,7.6
		c-0.2,2.3-2.9,3.9-3.7,5.9c3.4,9.3,4.3,17.9-7.2,4.1c-6.4-8.8-4.3-19.9-7.6-32c-1.1-5.2-1.4-9-3.2-14c-1.8-4.7-5-9.3-7.9-13.6
		c-0.6-0.6-1.1-1.2-1.4-2c-3.1-4.5-8.4-12.7-11.5-17.7c0-0.2-0.2-0.2-0.2-0.4c0,0.4,0.2,0.6,0.2,1c1.1,4.7,0.9,12.5,0,16.8v0.2
		c-2.9,6.6-6.6,13.4,0,23.6c0.4,0.4,0.6,1.1,1.1,1.4l-1.1,1l-4.3,3.9l-5.7-11.7c-8.8-22.2-4.1-36.3-1.6-50.7c2.3-13.8-5-17-9.3-27.5
		c-1.8-4.5-3.1-14-3.9-18.6c-1.8-11.1-3.1-14-4.7-25.2l-4.1,5.9c-3.9,5,0.4,9.8,0.4,15.6c-0.9,1.6-2.5,2.9-4.1,4.3
		c-1.2,1.2-2.3,2.5-2.7,3.9c-0.6,3.9,0.4,5.6,0.9,9.5c-2.7,7.2-6.1,12.1-10.9,15.2c-3.2-28.1-2.9-28.1,11.7-53
		c0.4-0.9,0.9-1.4,1.1-2c2.5-3.9,4.7-7,5.9-11.7c1.4-5.7-0.6-11.8-0.9-17.9l-4.5,8.8c-0.2,0.2-0.4,0.4-0.6,0.6c-2,2.7-4.5,5.2-7,7.8
		l4.3-24.7l2.7-6.6l4.3-9.7c3.4-8.4,1.6-15.6-4.1-22c0,0.6,0,1.2-0.2,1.8c-0.2,6.8-0.2,11.7-2.7,17c-2-8.4-6.1-13.1-15.8-10.2
		c3.9,11.3,4.3,29,2.5,49.9c-7.3,36.3-12.2,62.3-9.7,88.1c3.1,33.5,11.3,56.4,25.6,76.1c8.6,11.5,19.1,21.8,32.2,32.4l-12.5-23.6
		l-9.9-25.2c-4.1-9.5-4.5-20.4-5.9-30.6c-1.1-21.8,7.8-32.9,0-57.5c12.7,12,7.4,22.6,6.6,36.3c-0.4,7.5-1.6,15.4-0.8,22.9
		c1.6,12,4.3,24,8.4,35.3c4.3,12.5,10.9,26.3,19.3,37.8c3.9,5.5,8,10.4,12.5,14.5c0.2,0,0.2,0,0.4,0c9.7,2.9,18.3,5.4,26.5,7.2
		c-4.3-4.1-8.8-8.2-12.5-12.7c-11.7-14.3-10.2-24.4-11.7-41.7c-0.6-5.5-1.2-10.7-2.3-15.8c-1.4-5.7-3.4-11.3-7.2-16.8
		c2.9,3.3,5.2,5.6,7.2,8.4c3.3,5,5.4,11.3,6.4,27.2c2.9,27.4,10.9,37.6,28.8,53.2c1.4,0.2,2.9,0.6,4.3,0.9c7.6,1.6,15.4,2.9,24,4.3
		c-11.1-6.4-18.1-11.8-24-23.8c-0.4-1.1-0.9-1.8-1.2-2.9c0.4,0.6,0.9,1.2,1.2,1.8c10.7,13.6,19.9,18.5,34.7,26.9
		c7.4,1.4,14.5,3.1,21.5,5c12.5,3.3,24.4,7.6,35.5,14.1c1.8,1.1,3.4,2,5.1,3.3c6.4,4.1,12.3,9.3,17.9,15.4c2.7,3.2,5,7.2,6.8,11.1
		c4.1,9,6.8,19.1,9,27.5l11.1-1.4l5.4-0.6l3.9,13.6l6.8-1.6l5.9-1.2c1.1,7.2,3.9,15.6,8.6,22.2c2.3,3.2,5,5.9,8,8.2
		c2.9-2.3,5.5-5,7.9-8.2c5-6.6,7.5-15,8.6-22.2l5.9,1.2l6.8,1.6l3.9-13.6l5.4,0.6l11.1,1.4c2.5-8.4,5-18.5,9-27.5
		c1.8-3.9,4.1-7.8,6.8-11.1c5.6-6.1,11.5-11.3,17.9-15.4c1.6-1.2,3.6-2.3,5.2-3.3c11.1-6.6,22.9-10.9,35.5-14.1
		c7-1.8,14.3-3.4,21.5-5c14.8-8.4,24-13.4,34.7-26.9c0.4-0.6,1.1-1.2,1.4-1.8c-0.4,1-1.1,1.8-1.4,2.9c-5.9,12-12.9,17.4-23.8,23.8
		c8.4-1.4,16.3-2.7,23.8-4.3c1.4-0.2,2.9-0.6,4.5-0.9c17.9-15.6,25.6-25.8,28.5-53.2c1.1-16,3.1-22.4,6.6-27.2
		c1.8-2.9,4.1-5.2,7-8.4c-3.7,5.6-5.7,11.1-7,16.8c-1.3,5.2-1.8,10.2-2.3,15.8c-1.6,17.2-0.2,27.2-11.7,41.7
		c-3.9,4.5-8.4,8.6-12.7,12.7c8.2-1.8,16.8-4.3,26.7-7.2h0.2c4.5-4.1,8.6-9,12.5-14.5c8.4-11.5,15.2-25.2,19.3-37.8
		c4.1-11.3,6.8-23.4,8.4-35.3c1.1-7.5-0.4-15.4-0.9-22.9c-0.9-13.8-6.1-24.4,6.6-36.3c-7.8,24.7,1.1,35.8,0,57.5
		c-1.2,10.2-1.6,21.1-5.9,30.6l-9.9,25.2l-12.3,23.6c12.9-10.7,23.6-20.9,32-32.4c14.5-19.7,22.8-42.7,25.6-76.1
		c2.5-25.8-2-51.7-9.7-88.1C843.1,565.6,843.6,547.9,847.7,536.6L847.7,536.6z M297.3,748.7L297.3,748.7c-3.2-5-5.7-9.5-8-13.6
		c-17.2-34.7-0.4-47.2-1.2-75c0.6,2.7,1.1,5.4,1.2,7.8c0.6,4.7,0.4,9,0,13.4c-1.1,12.5-3.9,24,0,42.7
		C290.9,731.3,293.4,739.2,297.3,748.7L297.3,748.7z M339.6,773.9L339.6,773.9c1.4,4.7,3.9,9.9,7.4,15.6c-3.1-3.9-5.5-7.4-7.4-10.4
		c-13.4-20.9-4.7-26.9-7.2-54.4C339.2,743,333,755.1,339.6,773.9z M379,769.5L379,769.5c-0.4-1.1-0.6-2-0.9-3.1l-0.2-4.3l1,1.2
		l3.3,3.7c7.4,24.2,18.4,22.4,34.7,39.2C400.8,794.7,385.2,789.3,379,769.5L379,769.5z M740.1,766.4L740.1,766.4
		c-0.2,1.1-0.4,2-0.9,3.1c-5.9,19.9-21.8,25.2-38,36.7c16.3-16.8,27.6-15,34.7-39.2l3.2-3.7l1.2-1.2L740.1,766.4L740.1,766.4z
		 M778.8,779.1L778.8,779.1c-2,3.1-4.5,6.6-7.5,10.4c3.4-5.7,5.9-10.9,7.5-15.6c6.4-18.8,0.2-31,7-49.2
		C783.4,752.2,792.1,758.2,778.8,779.1z M829,735.1L829,735.1c-2,4.1-4.7,8.6-7.9,13.6c3.9-9.5,6.4-17.4,7.9-24.7
		c3.9-18.6,1.1-30.2,0-42.7c-0.4-4.3-0.6-8.6,0-13.6c0.2-2.3,0.6-5,1.3-7.5C829.6,688,846.5,700.5,829,735.1z"/>
	<path id="path3751_4_" fill="#FFC200" d="M872.8,394.3c-6.4,5.6-7.4,25.1,8,28.5c16.3,1.8,18.3-7.8,15.8-14.1
		c-2.9-6.8-12.5-10-17,1.4l-1.8-2.7c-1.2-8.4,11.1-12.5,17.7-9c7.6,4.7,11.3,17.9,2.9,25.6c-4.3,3.7-11.8,5.6-21.1,3.7
		c-4.3-1.4-8.2-4.7-11.3-9.7c-2.5-3.9-4.5-8.6-5.9-14.3c-7.2-26.9-5.2-67.7,5.9-89.3c5-9.5,11.5-15.2,19.7-14.1
		c1-9.5-10.7-18.4-19.7-14.8c-3.1,1.2-5.7,3.9-7.6,8.6c-4.3,10.2-3.4,19.1-4.7,27.6h-1.8c0-31,3.1-55.3,14.1-75.4
		c1.6-3.1,3.7-6.1,5.7-9c15.4-21.5,44.8-6.1,34,12.3c-6.4,9.3-15.6,7.6-20.7,2l1.2-3.9c2,1.6,8.8,7,14,0.9
		c9.9-12.7-9.5-20.4-19-13.1c-13.1,9.7-11.1,32.4,8,35.1c19.3,3.7,32.6-10.4,32-30.6c-2.3-27.9-39.9-34.5-55.5-18.6
		c-1.1,1.1-2,2.3-2.9,3.4c-13.8,21.5-17.2,36.5-20.4,75.5c-1.1,19.7-1.4,38.2,0,57.3c1.1,16.6,3.3,33.5,7.4,51.9h0.2
		c2.7,12.3,8,22,15.6,27.9c7.2,5.7,16.8,8,28.1,5.5C941.9,424.9,905.5,365.8,872.8,394.3L872.8,394.3z"/>
	<path id="path3753_4_" fill="#FFC200" d="M559.7,828.4c0,0-0.2,0-0.4,0c-0.2,0-0.2,0-0.4,0c-2.9,0-5.4,1.2-7.5,3.1
		c-5,4.1-8.2,12-8.2,20.9c0,9,3.2,16.8,8.2,20.9c2.3,2,4.7,3.1,7.5,3.1c0.2,0,0.2,0,0.4,0c0.2,0,0.4,0,0.4,0c2.7,0,5.2-1.1,7.4-3.1
		c5-4.1,8.2-11.8,8.2-20.9s-3.2-16.8-8.2-20.9C564.7,829.6,562.4,828.4,559.7,828.4z M559.2,863.5L559.2,863.5
		c-4.1,0-6.8-5.2-6.8-11.1c0-6.1,2.7-11.1,6.8-11.1s6.6,5,6.6,11.1C565.8,858.4,563.3,863.5,559.2,863.5z"/>
	<path id="path3755_4_" fill="#FFC200" d="M582.1,205.9c-0.2,0-0.2-0.2-0.4-0.2c-5.9-3.7-11.1-9.7-14.5-16.3
		c-0.5-1.2-1.3-10.9-1.3-10.9c0.4,1.2,0.9,2.4,1.3,3.3c3.4,6.8,8.8,12.3,14.5,16.5c2.3,1.6,4.5,3.1,6.8,4.1c3.3-1.8,6.6-4.1,9.3-6.6
		c2.5-2,4.7-4.3,6.6-6.8c-2,0-3.9,0-5.7-0.2c-0.2,0-0.4,0-0.9,0c-4.3-0.9-9.9-2.7-14.1-5.5c-0.6-0.6-1.2-1-1.8-1.6
		c-5.7-6.1-9.4-15.6-6.4-23.8c1.2-2.9,3.2-5.5,6.4-7.6c2.3-1.4,4.7-2.5,7.9-3.2c-2.7-0.9-5.4-1.6-7.9-2.5c-5-1.4-9.6-2.3-14.5-2.9
		c-2-0.2-4.3-0.2-6.6-0.2c-0.2,0-0.4,0-0.4,0c-0.2,0-0.2,0-0.4,0c0,0-0.2,0-0.4,0s-0.2,0-0.4,0c-0.2,0-0.4,0-0.4,0
		c-0.2,0-0.4,0-0.6,0c-2.3,0-4.3,0-6.6,0.2c-4.7,0.6-9.7,1.4-14.5,2.9c-2.5,0.9-5.2,1.6-7.8,2.5c3.1,0.9,5.7,1.8,7.8,3.2
		c3.1,2,5.2,4.7,6.4,7.6c3.1,8.2-0.4,17.7-6.4,23.8c-0.6,0.6-1.1,1.1-1.6,1.6c-4.5,2.9-10,4.7-14.3,5.5c-0.2,0-0.6,0-0.9,0
		c-1.8,0.2-3.7,0.2-5.7,0.2c1.8,2.5,4.1,4.7,6.6,6.8c2.9,2.5,5.9,4.7,9.3,6.6c2.3-1.1,4.5-2.5,6.8-4.1c5.7-4.1,11.1-9.7,14.5-16.5
		c0.9-1.4,1.4-3.1,1.8-5c0,0-1.2,11.1-1.8,12.5c-3.4,6.6-8.6,12.5-14.5,16.3c-0.2,0-0.2,0.2-0.4,0.2c0.2,0,0.2,0.2,0.4,0.2
		c5,2.3,9.8,4.1,14.5,5.3c2.7,0.9,5.6,1.4,8,2c2.5-0.6,5.2-1.2,7.9-2c5-1.2,9.8-3.1,14.5-5.3C581.8,206.1,581.8,205.9,582.1,205.9
		L582.1,205.9z M551.3,157.7L551.3,157.7c-3.9-2.5-3.4-6.8,0-9.5c1.8-1.4,4.5-2.7,8-2.7c3.2,0,5.9,1.2,7.9,2.7c3.4,2.7,3.9,7,0,9.5
		c-1.6,1.3-4.3,1.8-7.9,2C555.6,159.5,552.9,158.9,551.3,157.7z"/>
	<path id="path3757_4_" fill="#FFC200" d="M578.3,60c-1.9-0.2-3.7-0.5-5.6-0.8c-4.6,11.4-7.2,22.7-8.4,33.7
		c-1.4,15.3-0.1,29.9,1.9,42.3c2.2,0.2,4.4,0.4,6.7,0.8c2.6,0.3,5,0.6,7.1,1.1c1.4-8.6,4.1-19.3,7.6-30.2
		c4.4-13.5,10.4-27.4,17.4-38.7c0.5-0.8,1-1.5,1.6-2.3c-0.9-0.2-1.6-0.5-2.3-0.6C595.9,63,587.1,61.2,578.3,60L578.3,60z"/>
	<path id="path3761_3_" fill="#FFC200" d="M426.4,280.4l4.3-1.1l2.3-1l-0.3-1.1l-3.4-2.4l-25-14.5l-3-1.7c-2.7,1.3-4.2,2.3-5,5.2
		C403.7,267.6,418.8,275.5,426.4,280.4L426.4,280.4z"/>
</g>
</svg>
